/* XPM */
static char *ab68beed3e2d4918fa176a05d725a60daUA3bh4ZzHOwRFxv[] = {
/* columns rows colors chars-per-pixel */
"32 32 212 2 ",
"   c #050000",
".  c #0B0100",
"X  c #120300",
"o  c #1A0C03",
"O  c #16080B",
"+  c #1F1108",
"@  c #1C1506",
"#  c #2E0A00",
"$  c #210E08",
"%  c #3B0401",
"&  c #24150A",
"*  c #2B1A0E",
"=  c #251308",
"-  c #381C05",
";  c #291912",
":  c #281616",
">  c #3C210E",
",  c #332116",
"<  c #3C2311",
"1  c #3B2C1C",
"2  c #36241B",
"3  c #302C23",
"4  c #3E3838",
"5  c #3B3529",
"6  c #401F0E",
"7  c #40210F",
"8  c #422412",
"9  c #482613",
"0  c #452A14",
"q  c #4A2C15",
"w  c #462D1E",
"e  c #4A2D1C",
"r  c #422618",
"t  c #532A1C",
"y  c #4D301B",
"u  c #52311F",
"i  c #58381F",
"p  c #4D3223",
"a  c #42332A",
"s  c #4D3B2B",
"d  c #483527",
"f  c #533423",
"g  c #593523",
"h  c #563A26",
"j  c #5C3C25",
"k  c #533729",
"l  c #563B2A",
"z  c #5C3D2B",
"x  c #5E3728",
"c  c #463A32",
"v  c #4A3B33",
"b  c #5C3E31",
"n  c #693D25",
"m  c #623E2A",
"M  c #623323",
"N  c #633F31",
"B  c #5D402E",
"V  c #57422D",
"C  c #534236",
"Z  c #5C4232",
"A  c #53463B",
"S  c #554A3C",
"D  c #5D4A3B",
"F  c #59453A",
"G  c #64422C",
"H  c #6A452D",
"J  c #69492B",
"K  c #644433",
"L  c #6B4534",
"P  c #6C4A34",
"I  c #644B3B",
"U  c #6B4C3B",
"Y  c #644836",
"T  c #744D33",
"R  c #724A3D",
"E  c #754734",
"W  c #6E513C",
"Q  c #73523E",
"!  c #765439",
"~  c #5A4D45",
"^  c #5C4D49",
"/  c #544641",
"(  c #5D5046",
")  c #5E5349",
"_  c #5F5850",
"`  c #614E44",
"'  c #6F4F40",
"]  c #754F42",
"[  c #7C4D44",
"{  c #645445",
"}  c #6D5242",
"|  c #65554A",
" . c #6A564D",
".. c #655D4D",
"X. c #6B5A4D",
"o. c #735543",
"O. c #7A5542",
"+. c #755A46",
"@. c #785843",
"#. c #73574C",
"$. c #735B4C",
"%. c #7A5C4B",
"&. c #6B5C53",
"*. c #655D50",
"=. c #735F53",
"-. c #7B5E51",
";. c #725F58",
":. c #69634F",
">. c #7E624D",
",. c #6F6159",
"<. c #6F6156",
"1. c #746354",
"2. c #7C6354",
"3. c #75645A",
"4. c #7C655B",
"5. c #776A5C",
"6. c #7C6A5D",
"7. c #756A63",
"8. c #7D6C62",
"9. c #777068",
"0. c #7F736B",
"q. c #7D7067",
"w. c #834844",
"e. c #835D4C",
"r. c #845A42",
"t. c #84634E",
"y. c #87654B",
"u. c #826553",
"i. c #826759",
"p. c #836C5C",
"a. c #8C6657",
"s. c #916B57",
"d. c #8C735C",
"f. c #836E62",
"g. c #876D68",
"h. c #847266",
"j. c #8B7464",
"k. c #85756A",
"l. c #89756B",
"z. c #86786C",
"x. c #8B7A6B",
"c. c #8E7863",
"v. c #907666",
"b. c #94756A",
"n. c #947C6D",
"m. c #987A67",
"M. c #867B71",
"N. c #8C7B73",
"B. c #8D7E7B",
"V. c #937E71",
"C. c #9A7F74",
"Z. c #A17E6A",
"A. c #AA7E71",
"S. c #97806E",
"D. c #8E817B",
"F. c #948274",
"G. c #9A8375",
"H. c #94847C",
"J. c #99857A",
"K. c #9B8A7C",
"L. c #96887B",
"P. c #A38675",
"I. c #A28877",
"U. c #A2867B",
"Y. c #A38A7C",
"T. c #A98C7E",
"R. c #AA927E",
"E. c #8D8183",
"W. c #958783",
"Q. c #998581",
"!. c #9D8C82",
"~. c #928D87",
"^. c #9D9285",
"/. c #9D918C",
"(. c #A28E82",
"). c #AB8E86",
"_. c #A49284",
"`. c #AA9384",
"'. c #A4958B",
"]. c #AC968A",
"[. c #A69A8E",
"{. c #AB9A8B",
"}. c #B49B84",
"|. c #B19B8C",
" X c #AC9D93",
".X c #A99C97",
"XX c #B39E92",
"oX c #ABA08C",
"OX c #BCA18E",
"+X c #B2A18D",
"@X c #AAA291",
"#X c #AFA299",
"$X c #B4A295",
"%X c #BAA295",
"&X c #B5A39A",
"*X c #BDA698",
"=X c #B6AA9C",
"-X c #BDAA9C",
";X c #BEADA3",
":X c #B8A9A4",
">X c #C3AA97",
",X c #C3AD9D",
"<X c #C2ACA3",
"1X c #C3B1A3",
"2X c #CCB1A5",
"3X c #CBB7AA",
"4X c #C2B8AE",
"5X c #CCBAAC",
"6X c #C3B3AA",
"7X c #CBBFB4",
"8X c #D1BFB5",
"9X c #D4C2B3",
/* pixels */
"  / |.u.9 P K U g i.5.S @X2.K T L N f.k.( =.f L H j I l.7.. o o ",
"/.. G.%.j P f %.f p.v &.4Xx.y m R K Y.3.5.X.I z G %.w F.~ . ; =X",
":X&X(.>X+.8 u.e =.N.c ) q.J.} z 8 2.V.| ..F.I p Q 0 f.<Xa X ;X'.",
" .-X].G.I.Y b I z.~ ) 3.c (.(.1.p.x.XXK.1 3.1.s > I 5Xa . 9XXXI ",
"Z $.`.X {.{.F.3X,.o ,.K.f.XX!.K.-X|.>Xx.p.D 5.K.J.1X8.X 5.K.I o.",
"- u.,XD  X8.x.h.9.A h.} n.|.8._.{.{.i.K j.n.1...!.'.L.& '.1.I f ",
"y.G I.J.( . X K.7._.V.6 L j.6.K.&X4.Y O.9 P.F.. . D.c &. XZ j P ",
"T q S.{.:X~ A &X5 x.j.L L Q x._.!.n.U t e.%.V.[.. H..X&.f.K Q G ",
"@.h 3XA 7.6X-X}.X 3.%Xp k ].k.B.XXJ.f.< $.3.. E., ;.;X!.F.W W J ",
"8 T.`.. $ $X`.OXH.X l.G.`.n.z.&X].V.G.p.K.h.~ W.3.<XXXX $Xp.h y.",
"x.9X-Xd l.2X# m.#XX l.X.G.J. X'.(.f.n._.J.=.l.g.|.].` . -X|.- 0 ",
"=XS G.9X2X-.K t z.C 3.s k.x.F.[.XXY.F.].6.1.V.3.r *X{.C $X3Xn.m.",
"*.. XXF.o.L ] K { _.k.6.K.{.F._.`.|.K.J.{ h.-.o.K z XX$X_.1 1X,X",
".  X|.f P K L R < F.3.{ C ].j.l #.C.J.x.X.j.z m m U I j.3Xv x.6.",
". N.<X' G a.U K Q } 4.=.3.Y.2.P b p.(.N.k.2.L L s.P e K.{.o o = ",
": Q.*Xe.Q L o.U L f G. .(.I.z L b $.K.z.x.k Q T n P U D 6X5.'. X",
"O :X<Xu.W K j @.K k 6. .H.V.i.f I #.f.3.f.I P H V o.L M A.g..X4 ",
". v ;Xn.y @.e.u U j.F.=.N.K.Y.Z -.h.3. .F.w o.O.U K a.# P.G.^ . ",
";X. k.-XI Y G O.s _.x.<.K.1.f.|.J.*XX.X.K.p.0 o.[ K 9 c.+XF.&X&X",
"!.7X. _.I.z s.x { x.{.5.5.h.-X{.,XK.x.-X1.F.x.d w.[ } oX:.. -Xb.",
"s 1XL.. 9XV.8 g !.3.x.D {.K.x.'._.K.`._.F.D {.h.% a.|.@X@ {.|.] ",
"B p.9X..{ 6XZ T.;X* $.j.G.6.8.'.J.{.d.< R.p.= 6Xb.U.8X..:.5X>.g ",
"P j `.^.. ^.5XJ.A 8.G.U o.Y.V.$X,X2.K q Z |.* ,.&XW.L.L._.G.y ! ",
"T g I M.. ) A o $ J.v.B 8 Y.J.Q.`.n.9 P Y v.K.o   . W.l.).K i J ",
"J j x..X.   O   !.V.p.j P +.I.Y.H.L.X.F 1.l.o ,.d.R.x.3. X$.H n ",
"P m.9Xq.^ D.'.7./ 8._.z W I.*XV.$X8.1.f.h.F.& !.}.c.3X( D $.j r.",
"h >XG.. $XV.G.,Xc + D 4.`.V.F.(.!.x.F.F.V., | K.q c.XX2 5X$.u L ",
"D (.w |.I.7 8 Z.0.&.| k.h.8.K.-X*X].J.k.h.C J.D K K V.3.&.1X} < ",
"x. Xh.OX@.P y.# N.W.c 8.N.{._.f.Y.n.K.N.; _.} B t.l p._.& K.-X=.",
"4X&.D R.j t.j G X.&.X ,.!.K.} B G } J.H.+ 6.l o.f } Z J.x.. k.7X",
"_ X $XI.j u o.} I G.X.a ` =.f Q P I k.H.k.X.+.P %.l k (.8.. . ~.",
"  c K.l U } l I z 2.6., F.|.j P H B _./.M.3.e T l U l v.-Xc 3   "
};
