/* XPM */
static char *f8f0b18010b447ddfbced204608c1404hGjRVqSl1H1ZTuqz[] = {
/* columns rows colors chars-per-pixel */
"32 32 24 1 ",
"  c #000003",
". c white",
"X c #FDFDFD",
"o c gray94",
"O c gray98",
"+ c #313133",
"@ c #3A393C",
"# c gray87",
"$ c #848485",
"% c #0B0B0E",
"& c #202022",
"* c #8C8C8D",
"= c #A0A0A1",
"- c #D5D5D6",
"; c #151518",
": c #AEAEAF",
"> c #CDCDCE",
", c #E8E8E9",
"< c #C1C1C1",
"1 c #5C5C5E",
"2 c #7F7F81",
"3 c #B7B7B8",
"4 c #79787A",
"5 c #4D4D4F",
/* pixels */
"OXXXXXXXXXXXXXXXXXXXXXXXXXXXXXXO",
"X..............................O",
"X..............................O",
"X..............................O",
"X..............................O",
"X..........O#####o.o##########oO",
"X.........O*&&&&1#.:&&&&4+&&&&3.",
"X........O*%   @>..=   2>;    :.",
"X.......O*%   @-...= %2O-;    :.",
"X......O*%   @-....=%2O.-;    :.",
"X.....O*%   @-.X...:2O..-;    :.",
"X....O$%   @>.X....,o..X=%   +-X",
"X...O$%   @>..........X=;   +<.O",
"X..O$%   @-...........=;   +<..O",
"X.O$%   @-..........X=;   +<.X.O",
"XO$%   @-..........X=;   +<....O",
".=%   %1$$$$$$$$$>.<;   ;3...,,O",
".$               *.=    &,..,1:.",
".$               *.=    &#.,1%:.",
".$               *.=    &,,1  :.",
".=++++++++++%    *.=    &>1   :.",
"XOooooooooo#+    *.3@@@@54@@@@<.",
"X..........o+    *.OooooooooooOO",
"X..........o+    *.............O",
"X..........o+    *.............O",
"X..........o@%;;%*.............O",
"X..........X->>>>,.............O",
"X..............................O",
"X..............................O",
"X..............................O",
"X..............................O",
"OXXXXXXXXXXXXXXXXXXXXXXXXXXXXXXO"
};
