/* XPM */
static char *bbe6051df1914b09cfce3b371ce46c54adP6iJjxPnJaT5iQ[] = {
/* columns rows colors chars-per-pixel */
"32 32 122 2 ",
"   c #050100",
".  c #0A0301",
"X  c #0E0A07",
"o  c #0E0B09",
"O  c #120A06",
"+  c #120E0C",
"@  c #14120F",
"#  c #1D140F",
"$  c #161515",
"%  c #191615",
"&  c #161817",
"*  c #191816",
"=  c #161719",
"-  c #191718",
";  c #171918",
":  c #1B1B1B",
">  c #211E1C",
",  c #1E201F",
"<  c #23211E",
"1  c #2A211E",
"2  c #1E1F21",
"3  c #211F20",
"4  c #1F2120",
"5  c #232323",
"6  c #292625",
"7  c #262827",
"8  c #2A2826",
"9  c #292728",
"0  c #272928",
"q  c #2A2A2A",
"w  c #352C27",
"e  c #362E2B",
"r  c #37322F",
"t  c #39302B",
"y  c #3A3532",
"u  c #3E3936",
"i  c #423A37",
"p  c #433F3C",
"a  c #46413E",
"s  c #4B433D",
"d  c #4D4744",
"f  c #524A47",
"g  c #534B48",
"h  c #594F4D",
"j  c #55514E",
"k  c #5A514D",
"l  c #5F5652",
"z  c #5E5A59",
"x  c #625753",
"c  c #625955",
"v  c #655D5A",
"b  c #6A615E",
"n  c #6C6562",
"m  c #716765",
"M  c #736A66",
"N  c #746D6A",
"B  c #796F6D",
"V  c #797471",
"C  c #7D7670",
"Z  c #7B7572",
"A  c #7D7875",
"S  c #817873",
"D  c #807875",
"F  c #827974",
"G  c #857C77",
"H  c #827A77",
"J  c #857B79",
"K  c #807C79",
"L  c #877D7B",
"P  c #837F7C",
"I  c #877F7C",
"U  c #827D7A",
"Y  c #85807D",
"T  c #87827F",
"R  c #85817E",
"E  c #89817E",
"W  c #8D8381",
"Q  c #8A8582",
"!  c #8B8683",
"~  c #8C8481",
"^  c #8E8683",
"/  c #8C8784",
"(  c #8F8784",
")  c #8B8582",
"_  c #8F8A86",
"`  c #908782",
"'  c #908885",
"]  c #928A87",
"[  c #938B88",
"{  c #928D89",
"}  c #918D8A",
"|  c #938E8B",
" . c #968D88",
".. c #978E89",
"X. c #958E8B",
"o. c #96918E",
"O. c #97928F",
"+. c #96918E",
"@. c #98908D",
"#. c #99918E",
"$. c #9B918F",
"%. c #989390",
"&. c #999491",
"*. c #9B9693",
"=. c #9C9794",
"-. c #9F9794",
";. c #9B9592",
":. c #9E9996",
">. c #9D9998",
",. c #A19692",
"<. c #A29995",
"1. c #A39E9B",
"2. c #A49F9C",
"3. c #A7A29F",
"4. c #AAA29F",
"5. c #ABA29D",
"6. c #A7A3A0",
"7. c #A9A4A1",
"8. c #AFAAA6",
"9. c #B1A9A6",
"0. c #B3ABA8",
"q. c #B9B0AB",
/* pixels */
"; : : ; & 9 5 : : : 5 : 5 : : - ; 5 9 & : : 5 5 ; ; : ; : 5 4 5 ",
"5 5 : ; ; 5 : ; & : & 5 $ 5 ; : ; 5 ; 5 & 5 & & : ; : ; 4 7 , : ",
"9 : ; ; ; 5 - ; : ; - 3 5 5 : - 5 : ; & ; - ; ; 7 : : : , 5 : ; ",
"5 ; & : ; : & 5 9 & : : q $ - ; : & 5 5 9 ; : : 5 : : ; ; : : 5 ",
": ; : 5 : ; - 9 : ; : - $ + : 5 - - * 8 - ; & : : ; : : & ; , q ",
"; : 5 5 ; ; & 5 & : 5 $ > 5 q 3 : * : 5 & - : ; ; : 7 5 ; ; : 0 ",
"; : : : ; : & : : 3 6 - 5 5 6 - : % 6 < 8 5 8 @ : : 5 , ; : ; : ",
"; ; ; ; ; 9 : ; : 9 : 5   .   : > +       < 6 * ; * : & & , : : ",
"7 : ; ; 9 5 : ; : : 6   n T y X O d ( 6.U >   * ; : ; & 5 7 & 5 ",
"5 : ; ; 5 ; - : % 5   z 1.=.1.  j 3.+.M 2.{ . 8 5 * : < 5 5 & : ",
": ; : & : & : 6 > > . %.c O [ n ] n   .   { P   8 $ ; > ; ; : 5 ",
"= 2 5 ; : ; 5 6 > . r *.1   m D ! . n #.d % +.@ * * : * & ; 5 9 ",
": 5 0 ; : ; : ; *   N T . . N J ..s #.[ #.  *.u   5 5 * : 5 5 5 ",
"; 4 5 & : ; ; $ 5 . { j v 6 b B b q.W . =.g Q a   6 5 $ ; : : : ",
"; = ; ; 5 ; ; : < p { e 0.v m L . k > c ( M ! < - 5 * * ; & ; : ",
"2 = ; 4 9 ; * 5   V N v 4.k h J . . t ..! ! !   6 * $ 8 5 & : : ",
": = ; 5 < & - 5   A I #.S G c x   . D Z D N d o > - : q : ; ; 5 ",
"; ; ; & - : > >   8 9.E # 5.<.,.w O <.s <.% % 8 - * * < ; : ; : ",
"& 5 : & * 5 5 $ u j   . . 1 1 ` l M ( e U . < % & : * ; ; 5 4 4 ",
": 5 5 ; : 5 > + < =.N l v w . *.l ..i N 9._ j   > 5 ; * : 7 , 4 ",
"5 : ; ; - - ; > . N 7.:.9.k b ..b <.  f Q _ |   5 5 * ; : , & : ",
": - ; 5 : $ : 6 6       ] f c Z D d .     + Q d : : $ : ; : ; 5 ",
"& ; < 5 < ; ; 5 : > < X n { *.M :.U V T V T >.  * * * 5 ; : 4 9 ",
"; , 5 < * * * ; - : < % . { U   N *.+.*.*.+.z   : > 5 8 & ; 4 5 ",
"; ; : & ; 5 : : & 8 > : -     >             o : - : 9 & ; = ; : ",
": ; : : 5 5 : ; - 8 : * 5 > : > > 6 > : - 5 < : $ : & : ; 5 ; 5 ",
"7 : : : 5 5 ; & $ : & - 5 5 < $ 6 8 > : * 5 : $ 5 ; ; ; 5 5 ; : ",
"0 : ; ; : : & : : ; * 5 5 : : * > : $ : * : - : 9 ; : & 5 ; & : ",
": & : ; ; ; : 0 : ; ; 6 > $ ; : : ; ; 6 : - ; 9 : ; & : & : & 5 ",
"& ; 5 5 : : : 7 & ; & ; ; ; 5 ; $ : 5 6 - - & : - ; : ; & : : q ",
": , 7 4 : : ; : & 5 : - ; 5 9 ; & 3 3 5 ; 5 ; & : > q & : ; 5 5 ",
": : 4 ; & : ; ; ; 9 5 ; ; : 5 & ; ; $ ; : 5 : ; ; 5 5 ; $ 5 ; : "
};
