/* XPM */
static char *_e9edc7147654333d0394c4a9e0a3f70hKMfUagcWALDEVgI[] = {
/* columns rows colors chars-per-pixel */
"64 64 24 1 ",
"  c black",
". c #181818",
"X c gray11",
"o c #28200C",
"O c #302410",
"+ c #382C14",
"@ c #202020",
"# c #2E2B22",
"$ c #313929",
"% c gray19",
"& c #343434",
"* c gray22",
"= c #403018",
"- c #483818",
"; c #543C1C",
": c #5C4020",
"> c #4C4436",
", c #6C4824",
"< c #744C28",
"1 c #524A42",
"2 c #5E5246",
"3 c #685D4C",
"4 c #736352",
"5 c #80502C",
/* pixels */
" oooooOO++OOO==+O=#+&===O==Ooo. ooOOO=O==+===OOoo  ooO+=&&OOOo  ",
" o##--;>--*&=;:;>>>::>:;>>>>#O. oO%=>>::>,:2>>=#o. o+%*>;>>-*#o ",
" o>>>;;>-=>*#>>>>>>:22:23222>=O o=>>2>;:;<232:;>+o #=>>>>,1>>;oo",
" +232>>--==**:>*:;:;::,4232321O o->>>-->,,222>>>+o.=>:>11,21>>=o",
" +231=&==&==*:**:::;;><4:44444O  &>:>>>>5:223>>-Oo.=:2>>::>222+o",
" O22;&&--===&;=>>>;;-;>>:>><44+ o>122222::>2111>+o.>>1:;>>>>>1O.",
" #22&---;-*##->>>>>;->:>>;:>24O o>>>>>>>>>>:;12>Oo@>>2:->*>>;2+o",
" >22;*&;;=#=->;:>>>>*:;;-**,33O .1>>:>>>>>>*>>>>Oo@>>2>&=>>>>>=o",
" ->=-&&=-=%##>>*>:;>&*;;*&&;:>O o#22:>>>>:;>>;:>OoO-;;*>>>>::>O ",
" O--==%%=####----;-=;>:;>-;->>O oo==:>*;>;>;>:->+o O==-&-;--;&Oo",
" o&&=+=#O==##&-;;->->>;;>;;&->O  +@=&>-:>:>>>&&-+o.oo########&Oo",
" O&&####OoO##&====;;-;;;;-=&;-O o=#+&>::-;;-:*&=O..OO#######+%Oo",
" o%%###O..o####&##=======&#&-=O .=-=#>>>->->:&==O. oOO+O##O###oo",
" oOo@oo..ooooO###+O#%##OO%%O+O. .O&&#-:;&&-+=;:=.   ooooOOoOOo. ",
"     ooo. ooo.ooooo.ooo oo oo    ooo##=&-->*;>>>O.    ....  .   ",
"                          .         o######-;*=-O.              ",
"ooooo.    ooooooo .  ooooooOOoo     ..oOOO%>>--&+o  .o  .#.OoOo.",
"===+O.  .oO+##++ooooo+-;;==-;==o...   ..oO&**-=&o. .o#=O@$X->;+o",
">,:;=o. oO=>1-;;-=Oo#*2<<;12321*o==oXX.   Oo##+O.  o=>2<%$#>1:&O",
">222;o .==>22,11>=+O->>12=;2>>>>o22=>;-#o.        .#-:11>#==:*$#",
"*>>>;Oo #&>:;::;>=#+;;->;=:>:>;>#22*>>:*#o .###=. .=;1>>$o:=;>>-",
"+;=&=Oo.=--=&>32>*#+*>;*==;222>&#2:=235>-+  O111O. =>3>&+#=-:&=#",
"##=-&. .#*>&&>221&#+>*>>&*2>>>*->>>$&>1:## o=22=Oo.=>3>>;-#>>&#O",
"#==-&o  #*>*&>12>##+>>>-;>2>>>>;>>>&->>,== o=22=+o.->2>>==#>>*=O",
"#--==Oo +=>>&=>>=%#+:;>-;><;=*===;;#-;>>-= o#21=#o =:>>>##&;,%=+",
"@#=-*Oo =;>>&**&&=#+=>>>>>:;%%===>;+-;-->= o#>:=Oo +--&&==-:,>==",
"#=---Oo =-*--*>>--=+---;;>>;-&>;;-*O=*#&;+ o#>*##X ###&&&=#=;,;>",
"&>&%#.  #=---%##=OO+&=-&&-;>>2>>;&%#&&*-=+.o#**=Oo.#&&#%%###&***",
"%####.  oO&#####OoO+-%##%##&-#%#&%#=&&&%OO  O&%OO..oOO#OO######&",
"##Ooo.  ooo##OooooooOO##OOO###OOOOooOOOo    oOOo   oooooooO##oO#",
"OOOoo   oooooooooo.ooOO#Ooo###oooOoooooo    .oo..  ooooooooOooOO",
"....                 ....  ....              ..       .. .   ...",
".....      .X.oOOOo...o..... ....... .       .. .  .....      ..",
"=====#O..Xo=>>>>-;-=########+==>>&>:OOo   ooO=O#=##>>+##.  .##==",
"2221;-=.o#o>21;;-12;>2222>-22222;>;2*#O  .=,,21>>==12>&&Oo =>>1>",
"22>>>;-@  %>1>>*;>>-;:2>>>>1>3;>2>21-&&o .>;;;==>>->>122o  #&>>1",
"21>>>;-O  =>>>>*;>>--;1>>>>>>2:>2>21;&&o .>;;-==1>->;>32O  #&>>1",
">>;-&>>O  =:>>>=-=&&&>>1>>2>*>1>;>>1;#=o .=--*&=>>=;->22+o +=>>*",
";;---;;#  O*>>>----==>>>>--====>;>;>->*. .==-;--;;;>==>>Oo +-;>>",
"-;--;-=O  +>>:==&&&==>--==->##*>=>;-=>-o .=;=-==&>>&%=-=Oo +=>>&",
"&>:-=&&=  O=*;==*=-&&&==+#=>##->&&;==&-o .=;====::>##-==#o O==*&",
"&**&&-=O  o=--=&&&==&&==##&&OOO=--&&&-=  .##%-==;;=%&&&&#o O+##O",
"&&&&&-=O  .=-==&&&&-&&==#=&&OoO=--&&&-=  .###-==;-=&&&&&#o O+##o",
"->*==&&+  o%&==&------=&###+oooO&&%%#&#. .#+++O+-=:>=-=#Oo O#>>>",
"1::,>*=O  O####%==%%%%&&#########@..o##o .O####@###%####.  +=->1",
";:;---=O  oOOOOOO##OO#####OO#OOoo. ..ooo .oooOOoO#######.  +-=>>",
">;--;*&o   ..ooooOOo.oOOoOooOo.    oo..   ....ooooOOOOo.   #&-*&",
">-;>1;=.         ..                                        #&=>1",
">->>2;=.                          ooooooooooooooo..ooooo.  #&-13",
",&>1>=%O  .oo+&#ooo   oooooo.    ooooooooooooooooooooooo. .#&-13",
"%#>>&##o  o>>-11-Oo  O-;;**-Oo   O&-;>>**-=**;;-;;;>>;==o  #&=&&",
"#%%###O.  O-;>12>+o o#>21332=O  o=;>2:>12>:321>1221;>2;-Oo o####",
"OoOo...   O>>2;;1=O o->>2212>=. .=>1111111111>>>21>;>1>>O. .oooo",
"          +;>1;->>= o=;;;>-;1>o o=;>-;:*;-->>1>>>>&==->>+o   ...",
".....     O&->-=;># o&*=->;;>>. .#=-=*;>=&::=>>-&%%>>&-=O.    ..",
"ooooo.    o&&>&#;=# o&&&;>>;>&   #&-#&&>&&,;=&&-&%#>>&--o    .oo",
"1>>:;##.  O---;>-+o o---=-&-&&o o%&&-&>%&>>#X.#>&&&&&;*&#o .o=:,",
"12*&>>=O  #&&=---Oo o=&&&&&>-&. o%*-&%X.X. .@>>**>1*&=&&.  .#&>1",
"*>**;>>#  #>>&&&&Oo.o==-==;-=&o  %>*#.o>21>>>=>>1>&&&&&&.  .%>&&",
"==>>=&&O  O==-===Oo.o==&%&-=&&o o=&#.o#>%##=--;>>;--=##%.  .#&&&",
"=-&&&&#o  .##%==#o..o=#####==&.  o..#;:=##==&===&=-&%..O.  o#&--",
"&-&&&&#o  .%%#-=O. .o=###oo#O&     .&<:=&=&&&&&-&==&%. ..  O#&;;",
"&&&&#Oo   .OOOOOo.. .OO#OooOOOo   oo#==O###O#OO=OO=&%ooo.  O%O+#",
"o.oo        .oooo    .o oo o       ooooooooooooo. .oOo.     .ooo"
};
