/* XPM */
static char *_b17e631164349168670d9b18e9a4b77BOiHA9HyWFrBejVS[] = {
/* columns rows colors chars-per-pixel */
"32 32 243 2 ",
"   c #060101",
".  c #1A0300",
"X  c #1B0C04",
"o  c #150702",
"O  c #1E1917",
"+  c #1D1707",
"@  c #240200",
"#  c #240B03",
"$  c #2B0502",
"%  c #330900",
"&  c #241304",
"*  c #2B1304",
"=  c #2C140C",
"-  c #27190A",
";  c #32160B",
":  c #331B0D",
">  c #3C1C0C",
",  c #351604",
"<  c #2D1D12",
"1  c #281915",
"2  c #341C13",
"3  c #3A1D14",
"4  c #361D1A",
"5  c #351311",
"6  c #36240D",
"7  c #292218",
"8  c #322013",
"9  c #3D2315",
"0  c #36251C",
"q  c #3A231A",
"w  c #3D2B1C",
"e  c #372C19",
"r  c #342524",
"t  c #3B2522",
"y  c #392A2A",
"u  c #352C25",
"i  c #461905",
"p  c #551C0E",
"a  c #431C18",
"s  c #46240A",
"d  c #56310C",
"f  c #432110",
"g  c #42251A",
"h  c #442A1B",
"j  c #4C2C1B",
"k  c #4A2717",
"l  c #532919",
"z  c #4C311D",
"x  c #43341E",
"c  c #57331D",
"v  c #592A0E",
"b  c #6B361B",
"n  c #65361B",
"m  c #6E311B",
"M  c #531A21",
"N  c #422C22",
"B  c #4B2C23",
"V  c #442626",
"C  c #5B2D22",
"Z  c #532620",
"A  c #4D3324",
"S  c #44332D",
"D  c #49342A",
"F  c #533323",
"G  c #53342B",
"H  c #5A352B",
"J  c #5C3B2C",
"K  c #573926",
"L  c #4A3937",
"P  c #523B3C",
"I  c #583934",
"U  c #4A2F36",
"Y  c #633523",
"T  c #633D2C",
"R  c #6B3827",
"E  c #753928",
"W  c #623D33",
"Q  c #6B3E32",
"!  c #643739",
"~  c #733F36",
"^  c #6E2F2C",
"/  c #77471D",
"(  c #6B4119",
")  c #55412D",
"_  c #5A402F",
"`  c #5D4232",
"'  c #564236",
"]  c #65412E",
"[  c #7A4629",
"{  c #6A4534",
"}  c #6C4A34",
"|  c #63443D",
" . c #684638",
".. c #7B4D34",
"X. c #744D3B",
"o. c #7B4C3E",
"O. c #774435",
"+. c #7A563B",
"@. c #6A543D",
"#. c #443741",
"$. c #743F49",
"%. c #594747",
"&. c #694C41",
"*. c #6A4B47",
"=. c #7C4C40",
"-. c #734846",
";. c #745244",
":. c #795243",
">. c #795848",
",. c #684D54",
"<. c #7A5656",
"1. c #744D50",
"2. c #7E694A",
"3. c #7B6153",
"4. c #776656",
"5. c #715362",
"6. c #7E7067",
"7. c #853F33",
"8. c #835318",
"9. c #854D1E",
"0. c #834927",
"q. c #854D35",
"w. c #8B5A35",
"e. c #82543D",
"r. c #855435",
"t. c #8D6539",
"y. c #946233",
"u. c #98643E",
"i. c #8C6427",
"p. c #A7653D",
"a. c #B96E3D",
"s. c #B1743D",
"d. c #845544",
"f. c #845B44",
"g. c #8C5E43",
"h. c #845C4B",
"j. c #895D4B",
"k. c #885449",
"l. c #945746",
"z. c #865B54",
"x. c #9A5C53",
"c. c #894550",
"v. c #A15F45",
"b. c #8A644A",
"n. c #9C6A46",
"m. c #93654C",
"M. c #976545",
"N. c #9A754D",
"B. c #8B6353",
"V. c #896858",
"C. c #946B55",
"Z. c #936B5A",
"A. c #996D5B",
"S. c #976654",
"D. c #8F735B",
"F. c #9A7459",
"G. c #A56B47",
"H. c #A87547",
"J. c #B4794C",
"K. c #A76A55",
"L. c #A47A5B",
"P. c #A77757",
"I. c #B77957",
"U. c #BB6B48",
"Y. c #875261",
"T. c #866762",
"R. c #976B65",
"E. c #9C7866",
"W. c #997767",
"Q. c #9A7A78",
"!. c #937170",
"~. c #A37363",
"^. c #AC7B63",
"/. c #A77968",
"(. c #B77C69",
"). c #AA7C73",
"_. c #AD6F6C",
"`. c #CD7C50",
"'. c #C17E6D",
"]. c #9B815E",
"[. c #A88259",
"{. c #B88457",
"}. c #B88F55",
"|. c #998176",
" X c #AC8365",
".X c #A5846C",
"XX c #B58767",
"oX c #BC966C",
"OX c #AA8776",
"+X c #B88C76",
"@X c #AA9571",
"#X c #BB9374",
"$X c #B59378",
"%X c #C98855",
"&X c #C7824B",
"*X c #C69468",
"=X c #D29463",
"-X c #C08B79",
";X c #C19375",
":X c #C1947B",
">X c #C59D76",
",X c #D49978",
"<X c #CE8B61",
"1X c #E99567",
"2X c #E08860",
"3X c #DDA56C",
"4X c #CBA57B",
"5X c #D9AB77",
"6X c #CAA76F",
"7X c #AE7F87",
"8X c #AC8B83",
"9X c #AD9885",
"0X c #BC9383",
"qX c #B89989",
"wX c #B6918B",
"eX c #BDA186",
"rX c #BAA599",
"tX c #C79987",
"yX c #C49A93",
"uX c #C9A688",
"iX c #D3A784",
"pX c #DCB68E",
"aX c #C5AB95",
"sX c #D3A895",
"dX c #DCB79D",
"fX c #CFB791",
"gX c #E5B59B",
"hX c #E0AD8E",
"jX c #D7BFA7",
"kX c #D6B9A6",
"lX c #CEB3AA",
"zX c #E2B3A9",
"xX c #EEC79C",
"cX c #DAC7BA",
"vX c #E4C6A6",
"bX c #F5D7AB",
"nX c #E9CEBC",
"mX c #F2CDB3",
"MX c #D0C492",
"NX c #F7BCC2",
"BX c #F0D2C4",
"VX c #FFEFDE",
"CX c #FFF5E6",
/* pixels */
"z z k , J T l R.*X0.$ 0XCXeX( {.I.G.t.bXbXd i (.*Xb > ,.V = } d ",
"9 K J f $ , l l H.0.[ hX4X/ <Xa.U.`.[ oXbXr.[ l.w.i i 3 5 > T s ",
"> f k >.X.l e.m.u.G.p.%X8.{.&X`.`.1X<Xu.w.iXK.K.e.e.f.i j.] > K ",
", J F T B.j...[ g.m J.=X8.3X%X2X1Xa.=X{.{.oXb 0.B.c K.M.r.Y K 9 ",
"h A z f ] X.i i > R XX{.5Xy.{.,X%X3X{.t.iX[.P.% g > R q.n s A w ",
") . h F > j j F f 0X:Xv >XoXt.J.}.H.P.iX+.b.iXt.@ -.l % F j & ) ",
"e 6 K 9 . g I 5 N.;X-Xp n vX*Xy./ H.pXuX% N.4XH.! V I = = w 9 6 ",
"6 x 6 N D 4 V V i.{.K.E d.M.5X5XoXmX;XR m.[ I.J.k.@ P 1 y S 6 z ",
"7 < j c Z.J # %.s.XXQ.Q p.`.0./.+Xr.y.J.M.[  X X3.* > B.:.h x - ",
"X w # >.f.b.; B %XP.;.=.I.%XG.o.Y M.{.J.M.b m.#X3.@ { j.X.J . e ",
"O y . K } h.;. .G.b.H j.G.H.,Xd.C #X*Xn.^.O... Xj.T h.j.{ h & e ",
"7 e & , j +.E.B.n.C.T j.g.w.tXA.C XXP.[ A.~ R m.Z.b.Z.X.> : e 7 ",
"+ - - 9 > V.;.] N.L.Q d.F.C.L.e.k F. XC.R.O.d. XV.j E.{ # w & 7 ",
"e - w 8 D 3.G ; b.+X^.+XjXjXuX#XB.$XdXdXyXR./.XX| ; &.3.h : 8 8 ",
"z e w & S L P t h F.K./.qX9XaX:X$XuXuXeXqXE.^.M.r %.0 %.) X D q ",
", _ X S X y L %.) .XS.C.V.4.qXL..X@X].2.R.V.^.n.r 5.L X < 8 8 D ",
"9 g ; q 0 r %.#.y./.!.Q.yX^.zX|.3.yXNXR.lXW.M.I.' S %.r r 1 : > ",
"2 3 3 g q t L U G.~.<.8XtX:XkX6.2.OXsXwXrXOXC.'.1.D P 1 r t 8 * ",
"2 = g g 9 B G I q.~.V.8X0XOXaXrXMXfXqXOXrXOXk.~.;.B G q 0 N N = ",
"q # h k c X.:.B.l.S.0XOXE.D.nXcX@XvXvX>.wXOX).~.h.X.>. .h q h : ",
"4 # g F { Z.Z././.S.dX+XB.qXVX.XB lXCXW.V.+XgXP.A.E.E.Z.W h 9 # ",
"4 # g J { :.;.:.| tXgX X|.BXkXf.<.Q.cXnX>.XXgXN. .h.X.>. .J 9 # ",
"2 2 g ` ` G J H 4 OXpXXXqXlXW.^.).z.W.jX/.tXdXV.V | k J  .] g 3 ",
"= 2 9 ` ` A *.*.,.j ,XiX8XT.).XXK.#X@XD.tXzXyXq P T.G W  .H > 9 ",
"i k > ; B | &.&.! ~.N.oXuXh.)./.(.I.I.M.:X:XP.n.H ! 5.,.0 < B M ",
"a h 2 = t P L V w.).7X/.pX6Xe.Y.=.f.f.uXBXR.A.^.>.I U P 0 & : a ",
"N q < & X 1 S *.{.S.1.-.#XxXF.z.z.Z..XnX8XG h..XD.| t 1 X o * B ",
": & N ;.&.A I T.l.q...h.! ).sX>XwXtXOX$XJ T.=.e.m.>.I D @.;.h . ",
": @ s +.m.d.o.o.E g.S.Z.-.8XuX[.S.#X;XL.o.~.l.w.E =.>.;.j.d.j . ",
": , s n b [ q.R 9.S.Y.! #XbXb.! O...>XgX~.p (.v.E E  .{ E m Z t ",
"X =  .j.[ R ~ ^ / x.$.Q 4X}.c 1.W.l } sXyXC l.E l.Y h { l.x.J   ",
"O   q ;.Q l ! -.c.O.i N.vXT j :.<.;.> 3.zX!.@ k.7.T ' A v O.I   "
};
