/* XPM */
static char *_79a2b82dd784376e0306b7d1e9ed589HWdrgWvZqko8bs8x[] = {
/* columns rows colors chars-per-pixel */
"32 32 154 2 ",
"   c #180012",
".  c #340F2E",
"X  c #3D1337",
"o  c #471D41",
"O  c #482243",
"+  c #4D2847",
"@  c #522D4C",
"#  c #56304F",
"$  c #572E51",
"%  c #5A2E53",
"&  c #563150",
"*  c #5A3555",
"=  c #5D3857",
"-  c #5E355A",
";  c #5E3958",
":  c #613557",
">  c #63365C",
",  c #633C5D",
"<  c #663D62",
"1  c #693E64",
"2  c #6C3F6A",
"3  c #65405F",
"4  c #674261",
"5  c #6A4365",
"6  c #6D4867",
"7  c #6E456A",
"8  c #6F4A69",
"9  c #704765",
"0  c #724967",
"q  c #71466B",
"w  c #734B6D",
"e  c #794E6F",
"r  c #75506F",
"t  c #7A516F",
"y  c #754C72",
"u  c #7A4E74",
"i  c #7B4E78",
"p  c #765170",
"a  c #7B5375",
"s  c #7C5877",
"d  c #7E5479",
"f  c #7E5A7A",
"g  c #805477",
"h  c #815876",
"j  c #81557B",
"k  c #835B7C",
"l  c #895D7F",
"z  c #85607F",
"x  c #8A637E",
"c  c #845780",
"v  c #855C81",
"b  c #8A5E84",
"n  c #8C5F88",
"m  c #866181",
"M  c #8B6385",
"N  c #8D6887",
"B  c #8E6589",
"V  c #8E6989",
"C  c #906486",
"Z  c #926987",
"A  c #92658B",
"S  c #936B8D",
"D  c #986C8F",
"F  c #96718D",
"G  c #926590",
"H  c #966C91",
"J  c #9A6D93",
"K  c #967292",
"L  c #9B7494",
"P  c #9E7896",
"I  c #9D7499",
"U  c #9E7A99",
"Y  c #A07994",
"T  c #A1759A",
"R  c #A37A9C",
"E  c #A3799D",
"W  c #A5799D",
"Q  c #A77B9C",
"!  c #A57B9F",
"~  c #A77B9F",
"^  c #A57E9D",
"/  c #A37C9C",
"(  c #A87C9D",
")  c #A97D9E",
"_  c #A87C9F",
"`  c #A77EA0",
"'  c #A67CA2",
"]  c #A67CA0",
"[  c #A87BA2",
"{  c #A87FA1",
"}  c #AB7EA5",
"|  c #A5809E",
" . c #A682A2",
".. c #A980A0",
"X. c #A982A1",
"o. c #A880A3",
"O. c #AA83A2",
"+. c #AC80A1",
"@. c #AD81A2",
"#. c #AE82A3",
"$. c #AB84A3",
"%. c #AD81A5",
"&. c #AF83A4",
"*. c #AF83A6",
"=. c #AD86A5",
"-. c #AB85A4",
";. c #AC89A7",
":. c #AF86A8",
">. c #AE89A9",
",. c #B084A5",
"<. c #B286A7",
"1. c #B08AA5",
"2. c #B084A8",
"3. c #B087A9",
"4. c #B387A8",
"5. c #B086AA",
"6. c #B387AB",
"7. c #B289A9",
"8. c #B18AA9",
"9. c #B188AA",
"0. c #B28BAA",
"q. c #B589AA",
"w. c #B28DAC",
"e. c #B88CAD",
"r. c #BA8EAF",
"t. c #B590AF",
"y. c #BB94AF",
"u. c #B48FB0",
"i. c #BB8FB3",
"p. c #B793B1",
"a. c #BC90B1",
"s. c #BB94B3",
"d. c #BD96B5",
"f. c #BE97B6",
"g. c #BB96B5",
"h. c #BE9ABA",
"j. c #C094B5",
"k. c #C39CBB",
"l. c #C49DBC",
"z. c #C59EBD",
"x. c #C29DBB",
"c. c #C3A0BE",
"v. c #C6A1C0",
"b. c #CBA4C3",
"n. c #CAA6C5",
"m. c #CFA8C7",
"M. c #CDA8C7",
"N. c #CFAAC9",
"B. c #D1AAC9",
"V. c #D7ABCC",
"C. c #D5AECD",
"Z. c #D8ACCD",
"A. c #D8B1D0",
"S. c #DCB7D6",
/* pixels */
"q.) @.a.) j.l V.r.@.@.) Z.,.5.7.S m.j f.=.o.k.P 7.A.7.b.X.B.f.s.",
"M a &.Z k W C &.,.j.C W r.D W b | L k L S ^ P o.x.f.P 7./ C.z.M.",
"D u q g : k l M J ) W W C ) k g k M a M N A D w B A w { S H :.7.",
"w a e b M &.a I J b * T D M j u b q k u a T M N j M ' E N 5.{ L ",
"< X 5.M * H D w a E j d w H W y b 7 j W D M : u &.I k 5.W A 5.T ",
"w v L v w k b a k k B L D H M I D D 7 D b q w k i.u a W D u u 5.",
"- a 1 H v v b 5 7 v % B ' J S 5 u u A g H } u J A [ A E b c J J ",
"7 - I w q H j 7 < v w v j b w j d u u < A g , d H A j T A M g H ",
"k 7 V y 7 v S 5 7 k b v H * L d w y g n j J B A A j n [ M u M B ",
"y 5 1 d a y 5 I I v B I w M b < q I > A J T u u B J u A J [ D } ",
"7 w 5 y w , O w < > B A k w v o.w b < , B 7 a u 7 I k 5 w I v B ",
"7 5 d y j a a 5 < a S 5 S < v w 7 5 u k a v a k B a B k k < 7 m ",
"m a m m V a a w 8 w k V k M L y f w a M M S v M H S E a M s B m ",
"= k f L U S f V a U u.>.f I m S m L f f U w m S L  .K B U a M u.",
"w U P =.^ U M k m N.x.P P v.^ A m p.M p.| S f U K c.t.K U m w.g.",
"S k S U L F w.V z.x.M S.x.>.=.| ;.L K ;.^ X.L  .p.^ >.-.g.a n.;.",
"5 N S  . .z M / ^ w.P t.-.h.>./ -.x.N w. .X.S U -. . .^  .N h.u.",
"O 6 a s a m P S z L t.P j ^ k M 8 t.s K L f 8 M L K K K U f  . .",
"8 > 5 f 8 4 a a 8 V L V a a j 8 w M = 5 M m 5 8 k k f v V w V H ",
"4 4 6 8 4 6 8 = & 4 5 a w & p , 4 , a a a k w p d v d y k 5 a v ",
"& = = = 4 , @ # & + p w 5 = 4 0 $ - q 5 , * 7 u y d y < 1 - 1 7 ",
", = = , w ; O 4 6 6 k j r 5 k 6 , j o $ j , 1 1 7 y q < 1 7 y a ",
"@ 5 a , , s w 3 4 p 5 M a = N > < A q k W d > a c i j c d j b G ",
"* , k w = 6 4 @ = & p S 8 * r a j q a 7 q a % J A y i b y 1 2 i ",
"= 4 , r p p 8 a 6 k @ k z a 0 5 1 j M 7 M w u q v v i n A j b j ",
"4 @ w a f w M 5 , k 4 k f a k z M a , w b k 1 u j A J A c b b u ",
", 3 z ; 4 6 , . , k f j p p k A e e j D j w % A J 7 w n q % q I ",
"5   6 p * f & 5 w 6 = 4 8 p , # 4 : e q h q % , a q u j 1 1 b b ",
"* V , 0 6 3 5 > k N N F 8 4 4 j a t M 0 a 0 e j p M j a 4 j ' w ",
"k 6 z M r f a K U S M L N k m k L M 9 j h Z k l ) M e Z N M o.T ",
"V S | L z w.S p.^ / X.=.t.S w.F F $.x y.x Y F / 1.L | $.7.f.7.=.",
"o.k A n.a =.m g.L L ;. .M.K x.k Y 1.w $.Z w.| x k./ d.P / z./ t."
};
