/* XPM */
static char *_6781fd8638f44c189a3dfd64d5c5e2cS3PtrSb9i6zwPh8s[] = {
/* columns rows colors chars-per-pixel */
"32 32 248 2 ",
"   c #00050C",
".  c #000802",
"X  c #021505",
"o  c #010716",
"O  c #031313",
"+  c #091C14",
"@  c #082203",
"#  c #112907",
"$  c #0E3302",
"%  c #193806",
"&  c #0C2A17",
"*  c #112417",
"=  c #193215",
"-  c #073F1A",
";  c #243B0D",
":  c #263C17",
">  c #212F18",
",  c #000728",
"<  c #0D1F21",
"1  c #091729",
"2  c #040237",
"3  c #1A3625",
"4  c #142D2F",
"5  c #212E25",
"6  c #233826",
"7  c #243735",
"8  c #2A3432",
"9  c #114F1E",
"0  c #115311",
"q  c #254702",
"w  c #375A09",
"e  c #2A451A",
"r  c #334616",
"t  c #39591A",
"y  c #285810",
"u  c #136B15",
"i  c #3C6409",
"p  c #266A1A",
"a  c #3A6917",
"s  c #377310",
"d  c #064D28",
"f  c #035726",
"g  c #144E3D",
"h  c #195639",
"j  c #135B2F",
"k  c #294628",
"l  c #374B2B",
"z  c #395926",
"x  c #334736",
"c  c #245C37",
"v  c #3B5736",
"b  c #2C4F32",
"n  c #186627",
"m  c #186837",
"M  c #126E2F",
"N  c #23662B",
"B  c #286B2C",
"V  c #356D2A",
"C  c #3A662A",
"Z  c #2D732C",
"A  c #2F7A27",
"S  c #3B752D",
"D  c #367C2E",
"F  c #3C7C2A",
"G  c #347525",
"H  c #236A3B",
"J  c #366937",
"K  c #267836",
"L  c #3C7D3B",
"P  c #387734",
"I  c #415D19",
"U  c #537C0C",
"Y  c #476A17",
"T  c #4B751E",
"R  c #4A771C",
"E  c #517B16",
"W  c #425A2C",
"Q  c #445D34",
"!  c #455A39",
"~  c #4E6D25",
"^  c #456B2D",
"/  c #4D6F2C",
"(  c #476626",
")  c #427A2C",
"_  c #4B7A2B",
"`  c #4C7425",
"'  c #557D24",
"]  c #597E23",
"[  c #54742B",
"{  c #537C2D",
"}  c #597A2C",
"|  c #567428",
" . c #4C643B",
".. c #486838",
"X. c #516A39",
"o. c #457C33",
"O. c #4D7D34",
"+. c #437B3A",
"@. c #4D7637",
"#. c #547634",
"$. c #537D34",
"%. c #5C7D33",
"&. c #59783A",
"*. c #526C2B",
"=. c #637B37",
"-. c #000043",
";. c #192D47",
":. c #1D334B",
">. c #2C3E42",
",. c #1B5D41",
"<. c #065341",
"1. c #364548",
"2. c #21585B",
"3. c #176E41",
"4. c #0E6649",
"5. c #2C6243",
"6. c #3B6C49",
"7. c #287746",
"8. c #39754A",
"9. c #286755",
"0. c #354566",
"q. c #386C6E",
"w. c #485D49",
"e. c #476C48",
"r. c #506747",
"t. c #457643",
"y. c #517B43",
"u. c #5A7A48",
"i. c #437955",
"p. c #657743",
"a. c #51756F",
"s. c #676771",
"d. c #32850E",
"f. c #2A8729",
"g. c #378629",
"h. c #3B8235",
"j. c #36843B",
"k. c #328A3A",
"l. c #468319",
"z. c #558A1A",
"x. c #5B9C0B",
"c. c #769A18",
"v. c #688D0F",
"b. c #6BA41D",
"n. c #7BB31E",
"m. c #478723",
"M. c #5B822C",
"N. c #5C8A2C",
"B. c #578826",
"V. c #5A9628",
"C. c #438234",
"Z. c #4C823B",
"A. c #4A8635",
"S. c #548332",
"D. c #5C8333",
"F. c #5D8B31",
"G. c #5C8439",
"H. c #5D8B3C",
"J. c #57873B",
"K. c #4A972D",
"L. c #638C2B",
"P. c #65872A",
"I. c #699529",
"U. c #739D2B",
"Y. c #739B25",
"T. c #638C34",
"R. c #62823C",
"E. c #648C3C",
"W. c #678835",
"Q. c #6B9534",
"!. c #6B9B33",
"~. c #62923B",
"^. c #6C923A",
"/. c #6D9B3A",
"(. c #649A38",
"). c #739D34",
"_. c #70953D",
"`. c #739C3A",
"'. c #769B38",
"]. c #7AAD25",
"[. c #78A52A",
"{. c #6CAC38",
"}. c #73A234",
"|. c #75A23C",
" X c #7BA43D",
".X c #7BA635",
"XX c #7DB43F",
"oX c #378446",
"OX c #3F8350",
"+X c #4A8847",
"@X c #528445",
"#X c #5C8D43",
"$X c #5D8C4E",
"%X c #598745",
"&X c #499349",
"*X c #5F9343",
"=X c #59954B",
"-X c #4A8455",
";X c #5B8C58",
":X c #519555",
">X c #638542",
",X c #658A43",
"<X c #65824B",
"1X c #638E4B",
"2X c #698A47",
"3X c #6C9444",
"4X c #6D944C",
"5X c #6C9A4A",
"6X c #659746",
"7X c #729545",
"8X c #749C43",
"9X c #7B9D44",
"0X c #72964B",
"qX c #739C4D",
"wX c #7C9E4D",
"eX c #678654",
"rX c #6E9451",
"tX c #699958",
"yX c #749355",
"uX c #749D53",
"iX c #779B57",
"pX c #708F54",
"aX c #6DA242",
"sX c #74A243",
"dX c #7BA344",
"fX c #7DAA43",
"gX c #75A44A",
"hX c #7BA34C",
"jX c #7FAC4B",
"kX c #6FA051",
"lX c #7AA556",
"zX c #7EB44E",
"xX c #5E8A71",
"cX c #779567",
"vX c #6C8B6C",
"bX c #84AF39",
"nX c #87B639",
"mX c #90BB2D",
"MX c #82AA48",
"NX c #86B447",
"BX c #85A958",
"VX c #87B15B",
"CX c #8CB454",
"ZX c #90B555",
"AX c #889F71",
"SX c #85A663",
"DX c #88AD60",
"FX c #96C659",
/* pixels */
" X XfXMX).`.MXP./ NXlXMXNX7X.XwXaXhXT M.ZX'.I.bX].MX3XNXI._ zXb.",
"`.`. X).).ZX9XP.] &..X8XQ.bX7X).^.T.] _.CXdX).).|.|.8XBXD.a !.fX",
"sX`.!.Q.Q.CXP.W.dX[ [.dXL.Y.3X}.8X^.D.D.M.^.CX!.4XI.ZXy.z Q.L.yX",
"(./.B.`.Q.Q.' 8XVXU.G.MX}.} [.sX} 7X7XE.S.T.8XR 3XQ.F.C @.hX8X&.",
"a 5XT.9X^.M.E.lX*X}.@.P.dX4XU.F.%.0XE.#XJ._ S.E.|.qX% T.zX^ lX] ",
"t 4XiX2XR.G.6XA.m.$XN.t <XZX@.i qX*XG Z.Z.a $.DXI.%XC V.{.+.y.L.",
"u.( yX( %.#XC.D g.+X~...Q =. .~ A.F D &X&Xo.$./ ~ $.lXF F =XV *X",
"cX@ X.q #.$XZ &Xj.A i.eXr X | AXF D j.j.B $XrX% l 3XS.-XOXp A.-X",
" .>.l t I.&.q.d.k.Z O.[.v ;./ 7X_ 8.d.P xXU.P.pX! P.H.m.oX9.B eX",
"* <XSX; W wXV.H K +X!.Q k % * %.fXo.D +.gXL.$ t v   E.Z.8.g.F gX",
"# M.>X% 4 z x.q.c 5X` 1 v ' 6 r fXV.5.o.].X.k 5X^ 4 z y.J s rX; ",
"%.^ k $.l @ M.@Xz I.6 3 %XiX,X> e Q.e.5XL.5 X.G.6XL.X vXM.$ v 7 ",
"Q.6.c ;XG.k 1.U ] z 7 { ) t./.Q , u.4X7Xx 7 !.S S b.x 1.U...O s.",
"V B Z g @.>X1 M. X1 ( (.N u V 8X, = L.w o w.z.n d ;XeX. 9XfX7 T ",
"5.n K d J iX= r.r.* } t.j M j aXu.k BX&.*.BXV f 3.9.%.r cXa S s ",
",.m 3.u 9 xXY   2 i eXh f 4.u C.mXt  . .v.[.2.j u 9 MXc.7 < V.i.",
"N n 4.7.- 1XU ;.@X= P.%Xm M d G.nXw e.W Y.qXh n 0 tXvXw  .& V.J ",
"N H n ,.Z.0X< #.R + s.L.d.<.h U.u.^ 0X( W eXS u +.;X& w MX= e.,X",
"$X8.0 t.4X! , Q.kX+ 2 Y {.g O.P.o l U.Y , w.!.C.u.3 X #.U.: 0.^.",
"cXC y }.Q 1 I @.y.t . 6 @.q ^.l   X..X} O 5 | H.= < z C ^.#.1 *.",
"x ( T Y 5 5 Q.J y 3X] 7 x B.<XO [ qX1XuXY : x 3Xk O /.t.6.|.... ",
"X E.`.X l ^.i.h.l.+XzXz 6 eX1.e [.F.c @X].~ x =.! u.V.B a.B.z.< ",
"e ..<XO =.dX6.f.A H =Xl.e , 1 U.!.+.H B (.P.I z p.!.A.oXm p !.! ",
"2XO :.t R.e.K.K 7.oXN x.1X-.w.v.J 8.&Xn -X.Xc.! =.n.7.K f.oX) wX",
"MXW @ $.*X8.K g.j.L V H.T.w C e.oXK +XC.Z.4Xq >XY qX@XJ oXP G =X",
"0X| #.@.$Xo.h.h.h.L @X4XT hX1Xz oXZ G p 5X{ % SX%.` tXL +XP ) S.",
"u.M.dX....N.m.+.A.S $X%XY W.D.4XtXS %X6XlX{ { BXY q kX6X) o.O.1X",
"#.^.^.#.( 8XN.$.B.kX%X@ R.CX8XY 1XO.E.D.T ` BXqXSX` a gXB.lX/ t ",
"N.uXR.'.P.4XyX/.R lXrXt wXL.'.P.$ G.3XhX8X8XN.T uXlXB.CXL.T.} R.",
"I.uX0X[..X/ yXQ.VX~ q lXMXI.)._.D.wX_.dXP./.sXhX/.sXY ' hXP.hX7X",
"!.!. XU. XD.G._ G.D.G.MXU U.MXhXlXF.8XjXL.!.fX/.I.fXsXM.E.a /. X",
"jX].].hXhXFXB.C %.,XVXfXnXNX`.BX~.~.Q.E fXfX).MXnX X8X3X3XhXNXXX"
};
